<?xml version="1.0" standalone="no"?>
<!DOCTYPE svg PUBLIC "-//W3C//DTD SVG 20010904//EN"
 "http://www.w3.org/TR/2001/REC-SVG-20010904/DTD/svg10.dtd">
<svg version="1.0" xmlns="http://www.w3.org/2000/svg"
 width="942.000000pt" height="942.000000pt" viewBox="0 0 942.000000 942.000000"
 preserveAspectRatio="xMidYMid meet">

<g transform="translate(0.000000,942.000000) scale(0.100000,-0.100000)"
fill="#000000" stroke="none">
<path d="M4490 9374 c-691 -35 -1311 -270 -1829 -694 -226 -185 -263 -254
-210 -394 24 -66 91 -130 153 -147 49 -13 133 -6 172 14 16 8 65 47 109 87
502 451 1131 679 1810 657 629 -21 1174 -236 1650 -652 105 -91 150 -114 223
-115 121 0 221 90 239 215 10 78 -12 132 -86 205 -183 181 -523 413 -770 527
-319 146 -656 241 -991 277 -144 16 -363 25 -470 20z"/>
<path d="M4460 8420 c-356 -23 -712 -139 -994 -324 -147 -96 -294 -223 -323
-281 -20 -37 -22 -127 -4 -179 34 -100 150 -175 252 -163 62 8 98 27 184 97
172 141 325 228 514 290 301 100 555 114 871 50 277 -57 507 -171 730 -363
151 -130 352 -81 405 97 38 126 5 192 -165 329 -327 263 -720 412 -1180 447
-74 5 -144 9 -155 8 -11 0 -72 -4 -135 -8z"/>
<path d="M4424 7466 c-167 -27 -300 -82 -431 -177 -130 -94 -163 -142 -163
-238 0 -77 25 -135 83 -188 81 -74 194 -83 291 -22 178 113 226 134 343 150
144 20 295 -22 442 -121 85 -57 137 -74 203 -67 117 14 203 103 215 223 11
105 -37 175 -193 279 -176 119 -329 165 -559 171 -94 2 -180 -2 -231 -10z"/>
<path d="M4205 6359 c-720 -39 -1506 -191 -1759 -341 -96 -56 -221 -183 -279
-282 -78 -133 -142 -368 -184 -667 l-18 -129 -65 0 c-85 0 -191 -23 -258 -56
-71 -35 -160 -124 -200 -201 -55 -104 -62 -161 -62 -508 0 -303 1 -312 23
-355 59 -116 199 -146 299 -62 65 54 68 73 68 415 l0 307 34 38 c30 32 40 37
79 37 25 0 48 -2 51 -5 2 -3 -2 -120 -10 -260 -21 -369 -29 -1195 -15 -1630
24 -764 53 -1041 127 -1207 92 -210 286 -384 509 -456 227 -74 867 -153 1453
-178 306 -13 1271 -7 1482 10 513 41 870 86 1106 141 377 88 617 335 678 697
30 177 48 464 66 1033 18 565 11 1115 -20 1664 -9 144 -8 181 2 188 24 16 92
-1 123 -33 l30 -29 6 -333 c3 -182 6 -333 7 -334 31 -41 83 -87 110 -99 103
-43 232 18 262 124 13 50 13 584 -1 674 -6 39 -20 91 -30 116 -27 63 -94 154
-140 191 -81 66 -221 110 -344 111 l-60 0 -24 157 c-24 162 -67 361 -96 448
-32 95 -95 214 -154 287 -108 137 -255 227 -476 292 -628 185 -1541 277 -2320
235z m1205 -1168 c504 -29 1143 -106 1227 -150 52 -27 99 -78 117 -127 14 -41
27 -149 46 -379 19 -248 25 -410 25 -740 l0 -340 -27 -51 c-29 -56 -75 -99
-125 -120 -80 -34 -630 -105 -1068 -138 -623 -48 -1416 -46 -2040 4 -410 34
-952 108 -1012 139 -57 29 -109 91 -127 152 -42 141 5 1290 60 1459 18 59 65
115 116 141 28 14 104 30 237 49 423 61 670 82 1306 114 136 7 1083 -3 1265
-13z m-2268 -2699 c81 -40 149 -110 191 -200 29 -61 32 -76 32 -162 0 -86 -3
-101 -32 -162 -102 -216 -339 -304 -542 -202 -198 99 -279 333 -184 536 37 78
78 126 143 168 76 49 122 60 231 57 84 -2 103 -6 161 -35z m3300 6 c206 -96
293 -345 192 -548 -125 -250 -455 -304 -643 -105 -153 161 -157 401 -10 560
85 92 170 126 309 122 79 -2 105 -7 152 -29z"/>
<path d="M6885 794 c-153 -86 -522 -167 -962 -211 l-173 -17 0 -106 c0 -121
16 -191 62 -262 41 -65 99 -115 177 -152 l66 -31 262 -3 c286 -3 345 4 429 53
66 38 130 109 166 183 l33 66 3 216 c2 118 2 233 0 256 l-3 41 -60 -33z"/>
<path d="M2290 612 c0 -115 5 -234 10 -263 25 -132 112 -242 240 -303 l65 -31
263 -3 c242 -3 269 -2 331 17 121 37 224 133 267 251 10 28 18 92 21 168 l6
122 -44 0 c-68 0 -388 38 -553 66 -270 45 -402 81 -521 143 -38 20 -73 37 -77
39 -5 2 -8 -91 -8 -206z"/>
</g>
</svg>
